<?xml version="1.0" standalone="no"?>
<!DOCTYPE svg PUBLIC "-//W3C//DTD SVG 1.1//EN" "http://www.w3.org/Graphics/SVG/1.1/DTD/svg11.dtd" >
<svg xmlns="http://www.w3.org/2000/svg" xmlns:xlink="http://www.w3.org/1999/xlink" version="1.1">
<metadata></metadata>
<defs>
<font id="sport_centerregular" horiz-adv-x="1139" >
<font-face units-per-em="2048" ascent="1638" descent="-410" />
<missing-glyph horiz-adv-x="569" />
<glyph horiz-adv-x="0" />
<glyph unicode="&#xd;" horiz-adv-x="569" />
<glyph unicode=" "  horiz-adv-x="569" />
<glyph unicode="&#x09;" horiz-adv-x="569" />
<glyph unicode="&#xa0;" horiz-adv-x="569" />
<glyph unicode="!" horiz-adv-x="252" d="M50 154q0 76 76 76t76 -76q0 -77 -76 -77t-76 77zM50 456v557q0 76 76 76t76 -76v-557q0 -76 -76 -76t-76 76z" />
<glyph unicode="&#x22;" horiz-adv-x="494" d="M87 988l19 33q0 81 76 81t76 -76v-25q0 -24 -14 -44l-26 -45q-38 -66 -104 -28q-64 37 -27 104zM109 349l7 13zM273 986l19 33q0 81 76 81t76 -76v-25q0 -24 -14 -44l-26 -45q-38 -66 -104 -28q-64 37 -27 104z" />
<glyph unicode="#" horiz-adv-x="1152" d="M50 381q0 76 76 76h200q10 1 21 -2q75 -20 54 -93l-54 -202q-19 -75 -93 -54q-73 19 -54 93l29 106h-103q-76 0 -76 76zM142 724q0 77 76 77h204l55 206q20 72 93 53q74 -20 54 -93l-70 -262q-16 -57 -75 -57h-261q-76 0 -76 76zM604 199l54 202q16 57 75 56h200 q77 0 77 -76t-77 -76h-143l-39 -145q-19 -75 -93 -54q-73 19 -54 93zM690 744l70 263q20 72 93 53q74 -20 54 -93l-45 -166h163q77 0 77 -77q0 -76 -77 -76h-260q-11 0 -22 3q-73 20 -53 93z" />
<glyph unicode="$" horiz-adv-x="1107" d="M50 155q0 75 76 75h570q85 0 147 61q62 62 62 149q0 86 -62 148q-61 61 -147 61h-285q-76 0 -76 75q0 76 76 76h285q148 0 255 -106q106 -108 106 -254q0 -148 -106 -254t-255 -106h-105q38 -24 38 -67v-11q0 -75 -76 -75t-76 75v11q0 42 38 67h-389q-76 0 -76 75z M50 724q0 149 106 255t255 106h108q-42 20 -42 68v12q0 76 76 76t76 -76v-12q0 -48 -42 -68h394q76 0 76 -75q0 -76 -76 -76h-570q-87 0 -148 -61q-61 -63 -61 -149t61 -148q63 -61 148 -61h285q76 0 76 -75q0 -76 -76 -76h-285q-149 0 -255 106t-106 254z" />
<glyph unicode="%" horiz-adv-x="935" d="M50 897q0 83 58 140q59 59 140 59q82 0 141 -59q58 -57 58 -140t-58 -141t-141 -58q-82 0 -140 58t-58 141zM202 897q0 -21 14 -33q13 -14 32 -14q21 0 33 14q14 12 14 33q0 19 -14 33t-33 14q-18 0 -32 -14t-14 -33zM279 173l230 859q20 73 93 54q73 -20 54 -93 l-231 -859q-18 -75 -93 -54q-73 20 -53 93zM487 276q0 -82 58 -140q59 -59 141 -59t141 59q58 59 58 140t-58 141q-58 58 -141 58t-141 -58t-58 -141zM639 276q0 -18 14 -33q13 -13 33 -13t33 13q14 15 14 33q0 19 -14 33q-12 14 -33 14q-20 0 -33 -14q-14 -14 -14 -33z" />
<glyph unicode="&#x26;" horiz-adv-x="1411" d="M50 456q0 155 110 265q111 111 266 111h300q155 0 266 -111q110 -110 110 -265q0 -77 -76 -77t-76 77q0 92 -66 158q-65 65 -158 65h-300q-93 0 -158 -65q-66 -66 -66 -158q0 -93 66 -159t158 -66h859q76 0 76 -76t-76 -76h-859q-155 0 -266 111q-110 110 -110 266z M79 902q15 32 35 63q20 30 46 56q28 27 56 46q28 18 64 35q31 13 71 22q40 8 75 8h300q34 0 74 -8q41 -8 72 -22q37 -17 64 -35q29 -19 56 -46q26 -26 46 -56q22 -32 34 -63q31 -70 -40 -100q-69 -30 -99 40q-7 18 -21 38q-12 18 -28 34q-18 18 -33 28q-19 12 -38 20 q-23 10 -42 14q-28 4 -45 4h-300q-17 0 -45 -4q-18 -4 -42 -14q-18 -8 -38 -20q-15 -10 -33 -28q-16 -16 -28 -34q-13 -20 -21 -38q-29 -70 -99 -40q-69 30 -41 100z" />
<glyph unicode="'" horiz-adv-x="308" d="M87 988l19 33q0 81 76 81t76 -76v-25q0 -24 -14 -44l-26 -45q-38 -66 -104 -28q-64 37 -27 104zM109 349l7 13z" />
<glyph unicode="(" horiz-adv-x="454" d="M51 583q-1 315 182 620q39 66 104 26q67 -39 26 -104q-162 -272 -161 -542q2 -266 162 -543q39 -65 -28 -103q-65 -39 -104 28q-179 309 -181 618z" />
<glyph unicode=")" horiz-adv-x="453" d="M88 40q160 275 161 543q2 270 -161 542q-38 65 26 104q66 38 105 -26q184 -308 182 -620q-1 -307 -182 -618q-38 -66 -103 -28q-66 37 -28 103z" />
<glyph unicode="*" horiz-adv-x="739" d="M104 755q-54 52 0 107l13 13l-13 13q-54 54 0 108t108 0l66 -66q0 -1 0.5 -1h0.5q53 -55 0 -107l-67 -67q-54 -54 -108 0zM218 1002q-54 54 0 108t108 0l33 -33l33 33q54 54 108 0q53 -54 0 -108l-87 -87q-54 -53 -108 0v0.5v0.5zM238 647q-54 54 0 108l67 67 q54 52 108 0v-0.5v-0.5l67 -66q53 -54 0 -108q-54 -54 -108 0l-13 13l-13 -13q-54 -54 -108 0zM440 821v1q-54 52 0 107l87 87q53 54 107 0q55 -55 0 -107l-33 -34l33 -33q54 -54 0 -108q-54 -53 -107 0z" />
<glyph unicode="+" horiz-adv-x="717" d="M50 444q0 76 76 76h202q76 0 76 -76v-100q0 -76 -76 -76t-76 76v24h-126q-76 0 -76 76zM252 662v160q0 76 76 76t76 -76v-84h187q76 0 76 -76t-76 -76h-263q-76 0 -76 76z" />
<glyph unicode="," horiz-adv-x="308" d="M87 120l19 33q0 81 76 81t76 -76v-25q0 -24 -14 -44l-26 -45q-38 -66 -104 -28q-64 37 -27 104z" />
<glyph unicode="-" horiz-adv-x="758" d="M50 583q0 76 77 76h505q76 0 76 -76t-76 -76h-505q-77 0 -77 76z" />
<glyph unicode="." horiz-adv-x="252" d="M50 154q0 76 76 76t76 -76q0 -77 -76 -77t-76 77z" />
<glyph unicode="/" horiz-adv-x="518" d="M71 173l230 859q19 74 93 54t54 -93l-230 -859q-20 -75 -93 -54q-75 19 -54 93z" />
<glyph unicode="0" />
<glyph unicode="1" horiz-adv-x="252" d="M50 147v901q0 76 76 76t76 -76v-901q0 -76 -76 -76t-76 76z" />
<glyph unicode="2" horiz-adv-x="1153" d="M50 147v301q0 154 111 265t266 111h300q76 0 76 -76q0 -77 -76 -77h-300q-92 0 -159 -65q-65 -67 -65 -158v-225h824q76 0 76 -76t-76 -76h-900q-77 0 -77 76zM50 1048q0 76 77 76h600q157 0 266 -111q110 -110 110 -265q0 -156 -110 -266t-266 -110h-300q-76 0 -76 76 t76 76h300q93 0 158 65q66 66 66 159q0 92 -66 158t-158 66h-600q-77 0 -77 76z" />
<glyph unicode="3" horiz-adv-x="1153" d="M50 147q0 76 76 76h600q92 0 159 66q66 67 66 159q0 90 -66 158q-56 55 -132 64l-327 2q-76 0 -76 76q2 76 77 75l282 -1q12 2 17 2q155 0 266 -111t111 -265q0 -155 -111 -266t-266 -111h-600q-76 0 -76 76zM50 1048q0 76 76 76h600q35 0 75 -8t72 -22q41 -19 63 -35 q31 -19 56 -46q30 -30 46 -56q19 -26 35 -63q29 -70 -40 -100q-70 -30 -100 40q-6 19 -21 38q-10 16 -27 34q-22 20 -34 28q-19 12 -38 20q-23 10 -42 14q-26 4 -45 4h-600q-76 0 -76 76z" />
<glyph unicode="4" horiz-adv-x="1153" d="M50 748v300q0 76 77 76q76 0 76 -76v-300q0 -93 66 -159q65 -65 158 -65h400q76 0 76 -76t-76 -76h-400q-156 0 -266 110q-111 111 -111 266zM951 147v901q0 76 76 76t76 -76v-901q0 -76 -76 -76t-76 76z" />
<glyph unicode="5" horiz-adv-x="1153" d="M50 147q0 76 76 76h601q91 0 158 66q66 67 66 159q0 90 -66 158q-66 65 -158 65h-301q-76 0 -76 77q0 76 76 76h301q154 0 265 -111q111 -110 111 -265q0 -157 -111 -266q-111 -111 -265 -111h-601q-76 0 -76 76zM50 748v300q0 76 76 76h901q76 0 76 -76t-76 -76h-825 v-224q0 -93 66 -159q67 -65 158 -65h301q76 0 76 -76t-76 -76h-301q-155 0 -265 110q-111 109 -111 266z" />
<glyph unicode="6" horiz-adv-x="1152" d="M50 448v300q0 155 110 265q110 111 266 111h577q76 0 76 -76t-76 -76h-577q-92 0 -158 -66t-66 -158v-300q0 -93 66 -159t158 -66h300q92 0 158 66t66 159q0 92 -66 158q-65 65 -158 65h-300q-76 0 -76 77q0 76 76 76h300q155 0 266 -111q110 -110 110 -265 q0 -156 -110 -266q-111 -111 -266 -111h-300q-155 0 -266 111q-110 110 -110 266z" />
<glyph unicode="7" horiz-adv-x="1129" d="M50 1048q0 76 76 76h577q157 0 266 -111q110 -110 110 -265v-601q0 -76 -76 -76t-76 76v601q0 92 -66 158t-158 66h-577q-76 0 -76 76z" />
<glyph unicode="8" horiz-adv-x="1154" d="M51 448q0 155 111 265q111 111 265 111h301q154 0 265 -111t111 -265q0 -155 -111 -266t-265 -111h-301q-154 0 -265 111q-111 109 -111 266zM81 894q15 36 34 63q18 27 47 56q24 26 55 46q27 18 64 35q31 14 72 22q40 8 74 8h301q34 0 74 -8q39 -8 72 -22q37 -17 63 -35 q26 -17 56 -46q29 -29 47 -56t34 -63q28 -70 -40 -100q-70 -29 -100 40q-7 19 -21 38q-11 16 -27 34q-22 20 -34 28q-20 12 -38 20q-21 9 -42 14q-26 4 -44 4h-301q-18 0 -44 -4q-22 -5 -42 -14q-16 -6 -39 -20q-11 -8 -33 -28q-20 -22 -28 -34q-14 -21 -20 -38 q-31 -69 -100 -40q-71 30 -40 100zM203 448q0 -92 66 -159q67 -66 158 -66h301q90 0 158 66q66 67 66 159q0 90 -66 158q-67 65 -158 65h-301q-92 0 -158 -65q-66 -68 -66 -158z" />
<glyph unicode="9" horiz-adv-x="1152" d="M50 748q0 155 110 265q109 111 266 111h300q156 0 266 -111q110 -110 110 -265v-300q0 -156 -110 -266q-111 -111 -266 -111h-577q-76 0 -76 76t76 76h577q92 0 158 66t66 159v300q0 92 -66 158t-158 66h-300q-92 0 -158 -66t-66 -158q0 -93 66 -159q65 -65 158 -65h300 q76 0 76 -76q0 -77 -76 -77h-300q-155 0 -266 111q-110 110 -110 266z" />
<glyph unicode=":" horiz-adv-x="252" d="M50 361q0 76 76 76t76 -76t-76 -76t-76 76zM50 791q0 76 76 76t76 -76t-76 -76t-76 76z" />
<glyph unicode=";" horiz-adv-x="308" d="M87 311l19 33q0 81 76 81t76 -76v-25q0 -24 -14 -44l-26 -45q-38 -66 -104 -28q-64 37 -27 104zM106 791q0 76 76 76t76 -76t-76 -76t-76 76zM109 349l7 13z" />
<glyph unicode="&#x3c;" horiz-adv-x="859" d="M89 614q11 21 33 31l544 319q66 38 104 -27q39 -66 -27 -104l-439 -257l439 -256q65 -40 27 -104q-38 -67 -104 -27l-550 322q-66 37 -27 103z" />
<glyph unicode="=" horiz-adv-x="759" d="M50 361q0 76 76 76h506q77 0 77 -76t-77 -76h-506q-76 0 -76 76zM50 791q0 76 76 76h506q77 0 77 -76t-77 -76h-506q-76 0 -76 76z" />
<glyph unicode="&#x3e;" horiz-adv-x="858" d="M88 216q-37 64 27 104l439 256l-439 257q-65 38 -27 104q39 65 104 27l545 -319q21 -10 33 -31q38 -66 -27 -103h-1l-550 -322q-65 -40 -104 27z" />
<glyph unicode="?" horiz-adv-x="1153" d="M50 1049q0 76 76 76h601q155 0 266 -111q110 -110 110 -265q0 -156 -110 -266q-111 -110 -266 -110h-301q-76 0 -76 76t76 76h301q92 0 158 65q66 66 66 159q0 92 -66 158q-67 66 -158 66h-601q-76 0 -76 76zM287 147q0 76 76 76t76 -76q0 -77 -76 -77t-76 77z" />
<glyph unicode="@" horiz-adv-x="1142" d="M50 574q0 210 149 359t359 149q209 0 358 -149t149 -359v-115q0 -74 -52 -127q-53 -53 -128 -53q-74 0 -127 53t-53 127v117q0 60 -43 103q-44 44 -104 44t-104 -44q-44 -43 -44 -103q0 -59 43 -102q45 -43 105 -43q76 0 76 -76t-76 -76q-123 0 -212 87q-88 86 -88 210 q0 123 88 211t212 88q123 0 211 -88q88 -87 88 -211v-117q0 -12 9 -19q8 -9 19 -9q13 0 20 9q8 8 8 19v115q0 145 -104 251q-106 105 -251 105q-146 0 -251 -105t-105 -251q0 -145 104 -247q105 -103 253 -103h457q76 0 76 -76t-76 -76h-457q-209 0 -360 147 q-149 147 -149 355z" />
<glyph unicode="A" horiz-adv-x="1109" d="M50 167v285q0 146 106 254q108 106 255 106h285q149 0 255 -106t106 -254v-285q0 -75 -76 -75t-76 75v285q0 85 -61 148q-61 61 -148 61h-285q-86 0 -147 -61t-61 -148v-285q0 -75 -77 -75q-76 0 -76 75zM79 876q13 31 33 61q19 26 44 54q28 25 54 44q30 20 61 33 q32 13 69 21q39 8 71 8h285q34 0 72 -8q36 -8 69 -21q35 -15 61 -33q29 -20 53 -44q20 -20 45 -54q19 -30 33 -61q9 -21 9 -38q0 -40 -50 -60q-21 -9 -38 -9q-41 0 -61 49q-6 16 -20 36q-7 11 -25 31q-20 18 -32 26q-20 12 -35 19q-19 7 -39 12q-17 4 -42 4h-285 q-23 0 -41 -4q-22 -6 -40 -12q-14 -7 -35 -19q-18 -14 -31 -26q-12 -13 -26 -31q-10 -16 -19 -36q-20 -49 -61 -49q-18 0 -39 9q-49 20 -49 61q0 17 9 37z" />
<glyph unicode="B" horiz-adv-x="1109" d="M50 167v855q0 75 76 75h570q108 0 200 -61q90 -60 133 -160q9 -21 9 -38q0 -40 -50 -60q-21 -9 -38 -9q-41 0 -61 49q-25 58 -78 94q-53 34 -115 34h-493v-704h493q86 0 148 61q61 62 61 149q0 85 -61 148q-61 61 -148 61h-2.5h-3.5h-279q-76 0 -76 75q0 76 76 76h278 h4.5h2.5q149 0 255 -106t106 -254q0 -150 -106 -254q-104 -106 -255 -106h-570q-76 0 -76 75z" />
<glyph unicode="C" horiz-adv-x="1107" d="M50 452v284q0 147 106 255q108 106 255 106h548q76 0 76 -75q0 -76 -76 -76h-548q-86 0 -147 -61q-62 -62 -62 -149v-284q0 -87 62 -149q63 -61 147 -61h285q86 0 148 61q61 61 61 149q0 75 76 75t76 -75q0 -150 -106 -254q-104 -106 -255 -106h-285q-149 0 -255 106 t-106 254z" />
<glyph unicode="D" horiz-adv-x="1107" d="M50 452v345q0 75 76 75t76 -75v-345q0 -87 62 -149q63 -61 147 -61h285q86 0 148 61q61 61 61 149v284q0 88 -61 149t-148 61h-547q-76 0 -76 76q0 75 76 75h547q149 0 255 -106t106 -255v-284q0 -150 -106 -254q-104 -106 -255 -106h-285q-149 0 -255 106t-106 254z" />
<glyph unicode="E" horiz-adv-x="1107" d="M50 452q0 146 106 254q108 106 255 106h4.5h2.5h278q76 0 76 -76q0 -75 -76 -75h-278h-3h-4q-86 0 -147 -61q-62 -62 -62 -148q0 -87 62 -149q63 -61 147 -61h570q76 0 76 -75t-76 -75h-570q-149 0 -255 106t-106 254zM79 876q42 100 133 160q91 61 199 61h570 q76 0 76 -75q0 -76 -76 -76h-570q-59 0 -115 -34q-53 -38 -77 -94q-21 -49 -62 -49q-17 0 -38 9q-49 20 -49 61q0 17 9 37z" />
<glyph unicode="F" horiz-adv-x="1107" d="M50 167v285q0 146 106 254q108 106 255 106h4.5h2.5h278q76 0 76 -76q0 -75 -76 -75h-278h-3h-4q-86 0 -147 -61t-61 -148v-285q0 -75 -77 -75q-76 0 -76 75zM79 876q42 100 133 160q91 61 199 61h570q76 0 76 -75q0 -76 -76 -76h-570q-59 0 -115 -34q-53 -38 -77 -94 q-20 -49 -61 -49q-18 0 -39 9q-49 20 -49 61q0 17 9 37z" />
<glyph unicode="G" horiz-adv-x="1106" d="M50 452v284q0 147 106 255q108 106 255 106h547q76 0 76 -75q0 -76 -76 -76h-547q-86 0 -147 -61t-61 -149v-284q0 -88 61 -149q63 -61 147 -61h285q84 0 147 61q61 62 61 149q0 85 -61 148q-61 61 -147 61h-285q-76 0 -76 75q0 76 76 76h285q148 0 254 -106t106 -254 q0 -150 -106 -254q-105 -106 -254 -106h-285q-149 0 -255 106t-106 254z" />
<glyph unicode="H" horiz-adv-x="1107" d="M50 167v285q0 146 106 254q107 106 255 106h285q149 0 255 -106t106 -254v-285q0 -75 -76 -75t-76 75v285q0 87 -61 148t-148 61h-285q-86 0 -147 -61q-62 -62 -62 -148v-285q0 -75 -76 -75t-76 75zM50 847v152q0 75 76 75t76 -75v-152q0 -75 -76 -75t-76 75zM905 847 v152q0 75 76 75t76 -75v-152q0 -75 -76 -75t-76 75z" />
<glyph unicode="I" horiz-adv-x="252" d="M50 167v855q0 75 76 75t76 -75v-855q0 -75 -76 -75t-76 75z" />
<glyph unicode="J" horiz-adv-x="1085" d="M50 167q0 75 76 75h548q84 0 147 61q62 62 62 149v570q0 75 76 75t76 -75v-570q0 -148 -106 -254q-105 -106 -255 -106h-548q-76 0 -76 75z" />
<glyph unicode="K" horiz-adv-x="1107" d="M50 167v832q0 75 76 75t76 -75v-832q0 -75 -76 -75t-76 75zM335 736q0 76 76 76h285q86 0 147 61q62 62 62 149q0 75 76 75t76 -75q0 -148 -106 -255q-106 -106 -255 -106h-285q-76 0 -76 75zM888 533q-8 20 -8 37q0 41 49 61q21 10 39 10q40 0 60 -49q14 -31 22 -69 q7 -42 7 -71v-285q0 -75 -76 -75t-76 75v284v1q0 16 -4 42q-6 24 -13 39z" />
<glyph unicode="L" horiz-adv-x="1085" d="M50 452v570q0 75 76 75t76 -75v-570q0 -87 62 -149q61 -61 147 -61h547q77 0 77 -75t-77 -75h-547q-151 0 -255 106q-106 106 -106 254z" />
<glyph unicode="M" horiz-adv-x="1107" d="M50 167v569q0 148 105 255q107 106 256 106q147 0 255 -106q106 -108 106 -255q0 -2 -0.5 -3.5t-0.5 -2.5v-278q0 -75 -76 -75q-75 0 -75 75v278q-1 2 -1 6q0 88 -61 149t-147 61q-87 0 -148 -61t-61 -149v-569q0 -75 -76 -75t-76 75zM736 1028q21 48 62 48q17 0 38 -8 q100 -43 160 -133q61 -91 61 -199v-569q0 -75 -77 -75q-76 0 -76 75v569q0 65 -34 116q-36 52 -94 78q-49 20 -49 60q0 17 9 38z" />
<glyph unicode="N" horiz-adv-x="1106" d="M50 167v855q0 75 77 75h284q149 0 255 -106t106 -255v-284q0 -76 -76 -76t-76 76v284q0 88 -61 149t-148 61h-208v-779q0 -75 -76 -75q-77 0 -77 75zM335 452v284q0 76 76 76q77 0 77 -76v-284q0 -88 61 -149q62 -61 147 -61h209v780q0 75 76 75t76 -75v-855 q0 -75 -76 -75h-285q-149 0 -255 106t-106 254z" />
<glyph unicode="O" horiz-adv-x="1107" d="M50 452v284q0 147 106 255q107 106 255 106h285q149 0 255 -106t106 -255v-284q0 -150 -106 -254q-105 -106 -255 -106h-285q-149 0 -255 106t-106 254zM203 452q0 -88 61 -149q62 -61 147 -61h285q85 0 148 61q61 62 61 149v284q0 86 -61 149q-61 61 -148 61h-285 q-86 0 -147 -61t-61 -149v-284z" />
<glyph unicode="P" horiz-adv-x="1107" d="M50 167v285q0 146 106 254q107 106 255 106h285q76 0 76 -76q0 -75 -76 -75h-285q-86 0 -147 -61q-62 -62 -62 -148v-285q0 -75 -76 -75t-76 75zM50 1022q0 75 76 75h570q149 0 255 -106t106 -255q0 -148 -106 -254t-255 -106h-285q-76 0 -76 76q0 75 76 75h285 q85 0 148 61q61 61 61 148q0 88 -61 149t-148 61h-570q-76 0 -76 76z" />
<glyph unicode="Q" horiz-adv-x="1107" d="M50 452v284q0 147 106 255q107 106 255 106h285q149 0 255 -106t106 -255v-547q0 -75 -76 -75t-76 75v547q0 88 -61 149t-148 61h-285q-86 0 -147 -61q-62 -62 -62 -149v-284q0 -87 62 -149q62 -61 147 -61t148 61q61 61 61 149v284q0 76 76 76t76 -76v-284 q0 -150 -106 -254q-105 -106 -255 -106q-149 0 -255 106t-106 254z" />
<glyph unicode="R" horiz-adv-x="1108" d="M50 167v855q0 75 76 75h570q109 0 200 -61q90 -61 132 -160q9 -21 9 -38q0 -40 -49 -60q-21 -9 -38 -9q-40 0 -61 49q-26 58 -78 94q-54 34 -115 34h-494v-779q0 -75 -76 -75t-76 75zM335 736q0 76 76 76h285q149 0 255 -106t106 -254v-285q0 -75 -76 -75t-76 75v285 q0 87 -61 148t-148 61h-285q-76 0 -76 75z" />
<glyph unicode="S" horiz-adv-x="1107" d="M50 167q0 75 76 75h570q85 0 148 61q61 62 61 149q0 85 -61 148q-61 61 -148 61h-285q-76 0 -76 75q0 76 76 76h285q149 0 255 -106t106 -254q0 -150 -106 -254q-105 -106 -255 -106h-570q-76 0 -76 75zM50 736q0 147 106 255q107 106 255 106h570q76 0 76 -75 q0 -76 -76 -76h-570q-86 0 -147 -61t-61 -149q0 -87 61 -148q62 -61 147 -61h285q76 0 76 -75q0 -76 -76 -76h-285q-148 0 -255 106q-106 107 -106 254z" />
<glyph unicode="T" horiz-adv-x="1236" d="M50 1022q0 75 76 75h285q149 0 255 -106t106 -255v-569q0 -75 -76 -75t-76 75v569q0 88 -61 149t-148 61h-285q-76 0 -76 76zM749 1022q0 75 76 75h285q76 0 76 -75q0 -76 -76 -76h-285q-76 0 -76 76z" />
<glyph unicode="U" horiz-adv-x="1107" d="M50 452v547q0 75 76 75q77 0 77 -75v-547q0 -88 61 -149q62 -61 148 -61h284q85 0 148 61q61 61 61 149v284q0 88 -61 149t-148 61q-76 0 -76 76q0 75 76 75q149 0 255 -106t106 -255v-284q0 -150 -106 -254q-105 -106 -255 -106h-284q-150 0 -256 106t-106 254z" />
<glyph unicode="V" horiz-adv-x="822" d="M50 167v855q0 75 76 75q77 0 77 -75v-780h208q85 0 148 61q61 61 61 149v570q0 75 76 75t76 -75v-570q0 -149 -105 -254q-106 -106 -256 -106h-285q-76 0 -76 75z" />
<glyph unicode="W" horiz-adv-x="1107" d="M50 452v570q0 75 77 75q76 0 76 -75v-570q0 -88 61 -149q62 -61 148 -61q84 0 147 61q61 61 61 149q0 4 1 6v278q0 76 75 76q76 0 76 -76v-277q0 -3 0.5 -4.5t0.5 -2.5q0 -149 -107 -254q-105 -106 -254 -106q-151 0 -255 106q-107 105 -107 254zM737 160q-9 20 -9 37 q0 40 49 61q59 25 93 78q35 50 35 116v570q0 75 76 75t76 -75v-570q0 -111 -60 -198q-59 -91 -160 -134q-21 -9 -38 -9q-41 0 -62 49z" />
<glyph unicode="X" horiz-adv-x="1107" d="M50 167v285q0 146 106 254q107 106 256 106h284q87 0 148 61t61 149q0 75 76 75t76 -75q0 -149 -106 -255t-255 -106h-284q-87 0 -148 -61t-61 -148v-285q0 -75 -77 -75q-76 0 -76 75zM50 1022q0 75 76 75q77 0 77 -75q0 -26 4 -42q2 -14 12 -40q8 -21 8 -37 q0 -41 -49 -61q-21 -9 -38 -9q-40 0 -61 49q-14 34 -21 68q-8 38 -8 72zM889 533q-9 20 -9 37q0 40 49 61q21 9 38 9q40 0 62 -48q13 -33 21 -69q7 -34 7 -71v-285q0 -75 -76 -75t-76 75v285q0 24 -4 42q-3 16 -12 39z" />
<glyph unicode="Y" horiz-adv-x="1107" d="M50 714v285q0 75 76 75t76 -75v-285q0 -87 61 -148t147 -61h285q87 0 148 61t61 148v285q0 75 76 75q77 0 77 -75v-285q0 -149 -107 -254q-106 -106 -255 -106h-285q-148 0 -255 106q-105 105 -105 254zM904 167v152q0 75 76 75q77 0 77 -75v-152q0 -75 -77 -75 q-76 0 -76 75z" />
<glyph unicode="Z" horiz-adv-x="1107" d="M50 167v285q0 146 106 254q107 106 255 106h286q75 0 75 -76q0 -75 -75 -75h-286q-86 0 -147 -61t-61 -148v-210h778q76 0 76 -75t-76 -75h-854q-77 0 -77 75zM50 1022q0 75 77 75h854q76 0 76 -75v-286q0 -148 -106 -254t-254 -106h-286q-76 0 -76 76q0 75 76 75h286 q84 0 147 61q61 61 61 148v210h-778q-77 0 -77 76z" />
<glyph unicode="[" horiz-adv-x="514" d="M50 70v1044q0 76 76 76h261q77 0 77 -76t-77 -76h-184v-891h184q77 0 77 -77q0 -74 -77 -74h-261q-76 0 -76 74z" />
<glyph unicode="\" horiz-adv-x="515" d="M68 1002q-18 73 54 93q74 19 93 -54l231 -859q19 -74 -54 -93q-73 -20 -93 54z" />
<glyph unicode="]" horiz-adv-x="513" d="M50 70q0 77 76 77h184v891h-184q-76 0 -76 76t76 76h261q76 0 76 -76v-1044q0 -74 -76 -74h-261q-76 0 -76 74z" />
<glyph unicode="^" horiz-adv-x="619" d="M94 875l154 214h-1q46 61 107 18q11 -10 21 -23l150 -209q44 -62 -18 -106q-61 -44 -106 18l-92 128l-92 -128q-44 -62 -106 -18q-61 45 -17 106z" />
<glyph unicode="_" horiz-adv-x="929" d="M50 163q0 76 76 76h677q76 0 76 -76q0 -77 -76 -77h-677q-76 0 -76 77z" />
<glyph unicode="`" horiz-adv-x="432" d="M88 983q-38 65 27 104q105 37 144 -27l85 -255q38 -65 -27 -64q-65 -38 -103 27z" />
<glyph unicode="a" horiz-adv-x="1109" d="M50 167v285q0 146 106 254q108 106 255 106h285q149 0 255 -106t106 -254v-285q0 -75 -76 -75t-76 75v285q0 85 -61 148q-61 61 -148 61h-285q-86 0 -147 -61t-61 -148v-285q0 -75 -77 -75q-76 0 -76 75zM79 876q13 31 33 61q19 26 44 54q28 25 54 44q30 20 61 33 q32 13 69 21q39 8 71 8h285q34 0 72 -8q36 -8 69 -21q35 -15 61 -33q29 -20 53 -44q20 -20 45 -54q19 -30 33 -61q9 -21 9 -38q0 -40 -50 -60q-21 -9 -38 -9q-41 0 -61 49q-6 16 -20 36q-7 11 -25 31q-20 18 -32 26q-20 12 -35 19q-19 7 -39 12q-17 4 -42 4h-285 q-23 0 -41 -4q-22 -6 -40 -12q-14 -7 -35 -19q-18 -14 -31 -26q-12 -13 -26 -31q-10 -16 -19 -36q-20 -49 -61 -49q-18 0 -39 9q-49 20 -49 61q0 17 9 37z" />
<glyph unicode="b" horiz-adv-x="1109" d="M50 167v855q0 75 76 75h570q108 0 200 -61q90 -60 133 -160q9 -21 9 -38q0 -40 -50 -60q-21 -9 -38 -9q-41 0 -61 49q-25 58 -78 94q-53 34 -115 34h-493v-704h493q86 0 148 61q61 62 61 149q0 85 -61 148q-61 61 -148 61h-2.5h-3.5h-279q-76 0 -76 75q0 76 76 76h278 h4.5h2.5q149 0 255 -106t106 -254q0 -150 -106 -254q-104 -106 -255 -106h-570q-76 0 -76 75z" />
<glyph unicode="c" horiz-adv-x="1107" d="M50 452v284q0 147 106 255q108 106 255 106h548q76 0 76 -75q0 -76 -76 -76h-548q-86 0 -147 -61q-62 -62 -62 -149v-284q0 -87 62 -149q63 -61 147 -61h285q86 0 148 61q61 61 61 149q0 75 76 75t76 -75q0 -150 -106 -254q-104 -106 -255 -106h-285q-149 0 -255 106 t-106 254z" />
<glyph unicode="d" horiz-adv-x="1107" d="M50 452v345q0 75 76 75t76 -75v-345q0 -87 62 -149q63 -61 147 -61h285q86 0 148 61q61 61 61 149v284q0 88 -61 149t-148 61h-547q-76 0 -76 76q0 75 76 75h547q149 0 255 -106t106 -255v-284q0 -150 -106 -254q-104 -106 -255 -106h-285q-149 0 -255 106t-106 254z" />
<glyph unicode="e" horiz-adv-x="1107" d="M50 452q0 146 106 254q108 106 255 106h4.5h2.5h278q76 0 76 -76q0 -75 -76 -75h-278h-3h-4q-86 0 -147 -61q-62 -62 -62 -148q0 -87 62 -149q63 -61 147 -61h570q76 0 76 -75t-76 -75h-570q-149 0 -255 106t-106 254zM79 876q42 100 133 160q91 61 199 61h570 q76 0 76 -75q0 -76 -76 -76h-570q-59 0 -115 -34q-53 -38 -77 -94q-21 -49 -62 -49q-17 0 -38 9q-49 20 -49 61q0 17 9 37z" />
<glyph unicode="f" horiz-adv-x="1107" d="M50 167v285q0 146 106 254q108 106 255 106h4.5h2.5h278q76 0 76 -76q0 -75 -76 -75h-278h-3h-4q-86 0 -147 -61t-61 -148v-285q0 -75 -77 -75q-76 0 -76 75zM79 876q42 100 133 160q91 61 199 61h570q76 0 76 -75q0 -76 -76 -76h-570q-59 0 -115 -34q-53 -38 -77 -94 q-20 -49 -61 -49q-18 0 -39 9q-49 20 -49 61q0 17 9 37z" />
<glyph unicode="g" horiz-adv-x="1106" d="M50 452v284q0 147 106 255q108 106 255 106h547q76 0 76 -75q0 -76 -76 -76h-547q-86 0 -147 -61t-61 -149v-284q0 -88 61 -149q63 -61 147 -61h285q84 0 147 61q61 62 61 149q0 85 -61 148q-61 61 -147 61h-285q-76 0 -76 75q0 76 76 76h285q148 0 254 -106t106 -254 q0 -150 -106 -254q-105 -106 -254 -106h-285q-149 0 -255 106t-106 254z" />
<glyph unicode="h" horiz-adv-x="1107" d="M50 167v285q0 146 106 254q107 106 255 106h285q149 0 255 -106t106 -254v-285q0 -75 -76 -75t-76 75v285q0 87 -61 148t-148 61h-285q-86 0 -147 -61q-62 -62 -62 -148v-285q0 -75 -76 -75t-76 75zM50 847v152q0 75 76 75t76 -75v-152q0 -75 -76 -75t-76 75zM905 847 v152q0 75 76 75t76 -75v-152q0 -75 -76 -75t-76 75z" />
<glyph unicode="i" horiz-adv-x="252" d="M50 167v855q0 75 76 75t76 -75v-855q0 -75 -76 -75t-76 75z" />
<glyph unicode="j" horiz-adv-x="1085" d="M50 167q0 75 76 75h548q84 0 147 61q62 62 62 149v570q0 75 76 75t76 -75v-570q0 -148 -106 -254q-105 -106 -255 -106h-548q-76 0 -76 75z" />
<glyph unicode="k" horiz-adv-x="1107" d="M50 167v832q0 75 76 75t76 -75v-832q0 -75 -76 -75t-76 75zM335 736q0 76 76 76h285q86 0 147 61q62 62 62 149q0 75 76 75t76 -75q0 -148 -106 -255q-106 -106 -255 -106h-285q-76 0 -76 75zM888 533q-8 20 -8 37q0 41 49 61q21 10 39 10q40 0 60 -49q14 -31 22 -69 q7 -42 7 -71v-285q0 -75 -76 -75t-76 75v284v1q0 16 -4 42q-6 24 -13 39z" />
<glyph unicode="l" horiz-adv-x="1085" d="M50 452v570q0 75 76 75t76 -75v-570q0 -87 62 -149q61 -61 147 -61h547q77 0 77 -75t-77 -75h-547q-151 0 -255 106q-106 106 -106 254z" />
<glyph unicode="m" horiz-adv-x="1107" d="M50 167v569q0 148 105 255q107 106 256 106q147 0 255 -106q106 -108 106 -255q0 -2 -0.5 -3.5t-0.5 -2.5v-278q0 -75 -76 -75q-75 0 -75 75v278q-1 2 -1 6q0 88 -61 149t-147 61q-87 0 -148 -61t-61 -149v-569q0 -75 -76 -75t-76 75zM736 1028q21 48 62 48q17 0 38 -8 q100 -43 160 -133q61 -91 61 -199v-569q0 -75 -77 -75q-76 0 -76 75v569q0 65 -34 116q-36 52 -94 78q-49 20 -49 60q0 17 9 38z" />
<glyph unicode="n" horiz-adv-x="1106" d="M50 167v855q0 75 77 75h284q149 0 255 -106t106 -255v-284q0 -76 -76 -76t-76 76v284q0 88 -61 149t-148 61h-208v-779q0 -75 -76 -75q-77 0 -77 75zM335 452v284q0 76 76 76q77 0 77 -76v-284q0 -88 61 -149q62 -61 147 -61h209v780q0 75 76 75t76 -75v-855 q0 -75 -76 -75h-285q-149 0 -255 106t-106 254z" />
<glyph unicode="o" horiz-adv-x="1107" d="M50 452v284q0 147 106 255q107 106 255 106h285q149 0 255 -106t106 -255v-284q0 -150 -106 -254q-105 -106 -255 -106h-285q-149 0 -255 106t-106 254zM203 452q0 -88 61 -149q62 -61 147 -61h285q85 0 148 61q61 62 61 149v284q0 86 -61 149q-61 61 -148 61h-285 q-86 0 -147 -61t-61 -149v-284z" />
<glyph unicode="p" horiz-adv-x="1107" d="M50 167v285q0 146 106 254q107 106 255 106h285q76 0 76 -76q0 -75 -76 -75h-285q-86 0 -147 -61q-62 -62 -62 -148v-285q0 -75 -76 -75t-76 75zM50 1022q0 75 76 75h570q149 0 255 -106t106 -255q0 -148 -106 -254t-255 -106h-285q-76 0 -76 76q0 75 76 75h285 q85 0 148 61q61 61 61 148q0 88 -61 149t-148 61h-570q-76 0 -76 76z" />
<glyph unicode="q" horiz-adv-x="1107" d="M50 452v284q0 147 106 255q107 106 255 106h285q149 0 255 -106t106 -255v-547q0 -75 -76 -75t-76 75v547q0 88 -61 149t-148 61h-285q-86 0 -147 -61q-62 -62 -62 -149v-284q0 -87 62 -149q62 -61 147 -61t148 61q61 61 61 149v284q0 76 76 76t76 -76v-284 q0 -150 -106 -254q-105 -106 -255 -106q-149 0 -255 106t-106 254z" />
<glyph unicode="r" horiz-adv-x="1108" d="M50 167v855q0 75 76 75h570q109 0 200 -61q90 -61 132 -160q9 -21 9 -38q0 -40 -49 -60q-21 -9 -38 -9q-40 0 -61 49q-26 58 -78 94q-54 34 -115 34h-494v-779q0 -75 -76 -75t-76 75zM335 736q0 76 76 76h285q149 0 255 -106t106 -254v-285q0 -75 -76 -75t-76 75v285 q0 87 -61 148t-148 61h-285q-76 0 -76 75z" />
<glyph unicode="s" horiz-adv-x="1107" d="M50 167q0 75 76 75h570q85 0 148 61q61 62 61 149q0 85 -61 148q-61 61 -148 61h-285q-76 0 -76 75q0 76 76 76h285q149 0 255 -106t106 -254q0 -150 -106 -254q-105 -106 -255 -106h-570q-76 0 -76 75zM50 736q0 147 106 255q107 106 255 106h570q76 0 76 -75 q0 -76 -76 -76h-570q-86 0 -147 -61t-61 -149q0 -87 61 -148q62 -61 147 -61h285q76 0 76 -75q0 -76 -76 -76h-285q-148 0 -255 106q-106 107 -106 254z" />
<glyph unicode="t" horiz-adv-x="1236" d="M50 1022q0 75 76 75h285q149 0 255 -106t106 -255v-569q0 -75 -76 -75t-76 75v569q0 88 -61 149t-148 61h-285q-76 0 -76 76zM749 1022q0 75 76 75h285q76 0 76 -75q0 -76 -76 -76h-285q-76 0 -76 76z" />
<glyph unicode="u" horiz-adv-x="1107" d="M50 452v547q0 75 76 75q77 0 77 -75v-547q0 -88 61 -149q62 -61 148 -61h284q85 0 148 61q61 61 61 149v284q0 88 -61 149t-148 61q-76 0 -76 76q0 75 76 75q149 0 255 -106t106 -255v-284q0 -150 -106 -254q-105 -106 -255 -106h-284q-150 0 -256 106t-106 254z" />
<glyph unicode="v" horiz-adv-x="822" d="M50 167v855q0 75 76 75q77 0 77 -75v-780h208q85 0 148 61q61 61 61 149v570q0 75 76 75t76 -75v-570q0 -149 -105 -254q-106 -106 -256 -106h-285q-76 0 -76 75z" />
<glyph unicode="w" horiz-adv-x="1107" d="M50 452v570q0 75 77 75q76 0 76 -75v-570q0 -88 61 -149q62 -61 148 -61q84 0 147 61q61 61 61 149q0 4 1 6v278q0 76 75 76q76 0 76 -76v-277q0 -3 0.5 -4.5t0.5 -2.5q0 -149 -107 -254q-105 -106 -254 -106q-151 0 -255 106q-107 105 -107 254zM737 160q-9 20 -9 37 q0 40 49 61q59 25 93 78q35 50 35 116v570q0 75 76 75t76 -75v-570q0 -111 -60 -198q-59 -91 -160 -134q-21 -9 -38 -9q-41 0 -62 49z" />
<glyph unicode="x" horiz-adv-x="1107" d="M50 167v285q0 146 106 254q107 106 256 106h284q87 0 148 61t61 149q0 75 76 75t76 -75q0 -149 -106 -255t-255 -106h-284q-87 0 -148 -61t-61 -148v-285q0 -75 -77 -75q-76 0 -76 75zM50 1022q0 75 76 75q77 0 77 -75q0 -26 4 -42q2 -14 12 -40q8 -21 8 -37 q0 -41 -49 -61q-21 -9 -38 -9q-40 0 -61 49q-14 34 -21 68q-8 38 -8 72zM889 533q-9 20 -9 37q0 40 49 61q21 9 38 9q40 0 62 -48q13 -33 21 -69q7 -34 7 -71v-285q0 -75 -76 -75t-76 75v285q0 24 -4 42q-3 16 -12 39z" />
<glyph unicode="y" horiz-adv-x="1107" d="M50 714v285q0 75 76 75t76 -75v-285q0 -87 61 -148t147 -61h285q87 0 148 61t61 148v285q0 75 76 75q77 0 77 -75v-285q0 -149 -107 -254q-106 -106 -255 -106h-285q-148 0 -255 106q-105 105 -105 254zM904 167v152q0 75 76 75q77 0 77 -75v-152q0 -75 -77 -75 q-76 0 -76 75z" />
<glyph unicode="z" horiz-adv-x="1107" d="M50 167v285q0 146 106 254q107 106 255 106h286q75 0 75 -76q0 -75 -75 -75h-286q-86 0 -147 -61t-61 -148v-210h778q76 0 76 -75t-76 -75h-854q-77 0 -77 75zM50 1022q0 75 77 75h854q76 0 76 -75v-286q0 -148 -106 -254t-254 -106h-286q-76 0 -76 76q0 75 76 75h286 q84 0 147 61q61 61 61 148v210h-778q-77 0 -77 76z" />
<glyph unicode="{" horiz-adv-x="497" d="M93 548q-43 52 3 102q83 98 95.5 194.5t10.5 169.5q-1 109 19.5 175t149.5 66q76 0 76 -77q0 -76 -76 -76q-18 0 -17 -85q2 -84 -10.5 -193t-96.5 -227q84 -119 96.5 -228t10.5 -191q-1 -86 17 -86q76 0 76 -76q0 -75 -76 -75q-129 0 -149.5 65t-19.5 174q2 73 -11 170.5 t-98 197.5z" />
<glyph unicode="|" horiz-adv-x="252" d="M50 16v1162q0 77 76 77t76 -77v-1162q0 -75 -76 -75t-76 75z" />
<glyph unicode="}" horiz-adv-x="500" d="M50 16q0 76 76 76q18 0 18 86q-1 82 11 191t95 228q-83 118 -95 227t-11 193q0 85 -18 85q-76 0 -76 76q0 77 76 77q130 0 151 -66t18 -175q0 -73 12.5 -169.5t93.5 -194.5q49 -50 3 -102q-84 -100 -96.5 -197.5t-12.5 -170.5q3 -109 -18 -174t-151 -65q-76 0 -76 75z " />
<glyph unicode="~" horiz-adv-x="987" d="M91 552q-41 63 20 105q78 52 194 54q105 1 217 -44q83 -34 157 -32q69 0 110 27q63 43 106 -20q42 -62 -21 -105q-76 -53 -194 -54q-107 0 -216 44q-82 33 -158 33q-70 -2 -110 -28q-61 -44 -105 20z" />
<glyph unicode="&#xa1;" horiz-adv-x="682" />
<glyph unicode="&#xa2;" />
<glyph unicode="&#xa3;" />
<glyph unicode="&#xa5;" />
<glyph unicode="&#xa7;" />
<glyph unicode="&#xa8;" horiz-adv-x="682" />
<glyph unicode="&#xa9;" horiz-adv-x="1509" />
<glyph unicode="&#xaa;" horiz-adv-x="758" />
<glyph unicode="&#xab;" />
<glyph unicode="&#xac;" horiz-adv-x="1196" />
<glyph unicode="&#xad;" horiz-adv-x="758" d="M50 583q0 76 77 76h505q76 0 76 -76t-76 -76h-505q-77 0 -77 76z" />
<glyph unicode="&#xae;" horiz-adv-x="1509" />
<glyph unicode="&#xaf;" horiz-adv-x="1131" />
<glyph unicode="&#xb0;" horiz-adv-x="819" />
<glyph unicode="&#xb1;" horiz-adv-x="1124" />
<glyph unicode="&#xb4;" horiz-adv-x="682" />
<glyph unicode="&#xb5;" horiz-adv-x="1180" />
<glyph unicode="&#xb6;" horiz-adv-x="1100" />
<glyph unicode="&#xb7;" horiz-adv-x="569" />
<glyph unicode="&#xb8;" horiz-adv-x="682" />
<glyph unicode="&#xba;" horiz-adv-x="748" />
<glyph unicode="&#xbb;" />
<glyph unicode="&#xbf;" horiz-adv-x="1251" />
<glyph unicode="&#xc0;" horiz-adv-x="1366" />
<glyph unicode="&#xc1;" horiz-adv-x="1366" />
<glyph unicode="&#xc2;" horiz-adv-x="1366" />
<glyph unicode="&#xc3;" horiz-adv-x="1366" />
<glyph unicode="&#xc4;" horiz-adv-x="1366" />
<glyph unicode="&#xc5;" horiz-adv-x="1366" />
<glyph unicode="&#xc6;" horiz-adv-x="2048" />
<glyph unicode="&#xc7;" horiz-adv-x="1479" />
<glyph unicode="&#xc8;" horiz-adv-x="1366" />
<glyph unicode="&#xc9;" horiz-adv-x="1366" />
<glyph unicode="&#xca;" horiz-adv-x="1366" />
<glyph unicode="&#xcb;" horiz-adv-x="1366" />
<glyph unicode="&#xcc;" horiz-adv-x="569" />
<glyph unicode="&#xcd;" horiz-adv-x="569" />
<glyph unicode="&#xce;" horiz-adv-x="569" />
<glyph unicode="&#xcf;" horiz-adv-x="569" />
<glyph unicode="&#xd0;" horiz-adv-x="1479" />
<glyph unicode="&#xd1;" horiz-adv-x="1479" />
<glyph unicode="&#xd2;" horiz-adv-x="1593" />
<glyph unicode="&#xd3;" horiz-adv-x="1593" />
<glyph unicode="&#xd4;" horiz-adv-x="1593" />
<glyph unicode="&#xd5;" horiz-adv-x="1593" />
<glyph unicode="&#xd6;" horiz-adv-x="1593" />
<glyph unicode="&#xd8;" horiz-adv-x="1593" />
<glyph unicode="&#xd9;" horiz-adv-x="1479" />
<glyph unicode="&#xda;" horiz-adv-x="1479" />
<glyph unicode="&#xdb;" horiz-adv-x="1479" />
<glyph unicode="&#xdc;" horiz-adv-x="1479" />
<glyph unicode="&#xdd;" horiz-adv-x="1366" />
<glyph unicode="&#xde;" horiz-adv-x="1366" />
<glyph unicode="&#xdf;" horiz-adv-x="1251" />
<glyph unicode="&#xe0;" />
<glyph unicode="&#xe1;" />
<glyph unicode="&#xe2;" />
<glyph unicode="&#xe3;" />
<glyph unicode="&#xe4;" />
<glyph unicode="&#xe5;" />
<glyph unicode="&#xe6;" horiz-adv-x="1821" />
<glyph unicode="&#xe7;" horiz-adv-x="1024" />
<glyph unicode="&#xe8;" />
<glyph unicode="&#xe9;" />
<glyph unicode="&#xea;" />
<glyph unicode="&#xeb;" />
<glyph unicode="&#xec;" horiz-adv-x="569" />
<glyph unicode="&#xed;" horiz-adv-x="569" />
<glyph unicode="&#xee;" horiz-adv-x="569" />
<glyph unicode="&#xef;" horiz-adv-x="569" />
<glyph unicode="&#xf0;" />
<glyph unicode="&#xf1;" />
<glyph unicode="&#xf2;" />
<glyph unicode="&#xf3;" />
<glyph unicode="&#xf4;" />
<glyph unicode="&#xf5;" />
<glyph unicode="&#xf6;" />
<glyph unicode="&#xf7;" horiz-adv-x="1124" />
<glyph unicode="&#xf8;" horiz-adv-x="1251" />
<glyph unicode="&#xf9;" />
<glyph unicode="&#xfa;" />
<glyph unicode="&#xfb;" />
<glyph unicode="&#xfc;" />
<glyph unicode="&#xfd;" horiz-adv-x="1024" />
<glyph unicode="&#xfe;" />
<glyph unicode="&#xff;" horiz-adv-x="1024" />
<glyph unicode="&#x131;" horiz-adv-x="569" />
<glyph unicode="&#x152;" horiz-adv-x="2048" />
<glyph unicode="&#x153;" horiz-adv-x="1933" />
<glyph unicode="&#x178;" horiz-adv-x="1366" />
<glyph unicode="&#x192;" />
<glyph unicode="&#x2c6;" horiz-adv-x="682" />
<glyph unicode="&#x2c7;" horiz-adv-x="682" />
<glyph unicode="&#x2d8;" horiz-adv-x="682" />
<glyph unicode="&#x2d9;" horiz-adv-x="682" />
<glyph unicode="&#x2da;" horiz-adv-x="682" />
<glyph unicode="&#x2db;" horiz-adv-x="682" />
<glyph unicode="&#x2dc;" horiz-adv-x="682" />
<glyph unicode="&#x2dd;" horiz-adv-x="682" />
<glyph unicode="&#x3a9;" horiz-adv-x="1531" />
<glyph unicode="&#x3c0;" horiz-adv-x="1413" />
<glyph unicode="&#x2000;" horiz-adv-x="682" />
<glyph unicode="&#x2001;" horiz-adv-x="1365" />
<glyph unicode="&#x2002;" horiz-adv-x="682" />
<glyph unicode="&#x2003;" horiz-adv-x="1365" />
<glyph unicode="&#x2004;" horiz-adv-x="455" />
<glyph unicode="&#x2005;" horiz-adv-x="341" />
<glyph unicode="&#x2006;" horiz-adv-x="227" />
<glyph unicode="&#x2007;" horiz-adv-x="227" />
<glyph unicode="&#x2008;" horiz-adv-x="170" />
<glyph unicode="&#x2009;" horiz-adv-x="273" />
<glyph unicode="&#x200a;" horiz-adv-x="75" />
<glyph unicode="&#x2010;" horiz-adv-x="758" d="M50 583q0 76 77 76h505q76 0 76 -76t-76 -76h-505q-77 0 -77 76z" />
<glyph unicode="&#x2011;" horiz-adv-x="758" d="M50 583q0 76 77 76h505q76 0 76 -76t-76 -76h-505q-77 0 -77 76z" />
<glyph unicode="&#x2012;" horiz-adv-x="758" d="M50 583q0 76 77 76h505q76 0 76 -76t-76 -76h-505q-77 0 -77 76z" />
<glyph unicode="&#x2013;" />
<glyph unicode="&#x2014;" horiz-adv-x="2048" />
<glyph unicode="&#x2018;" horiz-adv-x="455" />
<glyph unicode="&#x2019;" horiz-adv-x="455" />
<glyph unicode="&#x201a;" horiz-adv-x="455" />
<glyph unicode="&#x201c;" horiz-adv-x="682" />
<glyph unicode="&#x201d;" horiz-adv-x="682" />
<glyph unicode="&#x201e;" horiz-adv-x="682" />
<glyph unicode="&#x2020;" />
<glyph unicode="&#x2021;" />
<glyph unicode="&#x2022;" horiz-adv-x="717" />
<glyph unicode="&#x2026;" horiz-adv-x="2048" />
<glyph unicode="&#x202f;" horiz-adv-x="273" />
<glyph unicode="&#x2030;" horiz-adv-x="2048" />
<glyph unicode="&#x2039;" horiz-adv-x="682" />
<glyph unicode="&#x203a;" horiz-adv-x="682" />
<glyph unicode="&#x2044;" horiz-adv-x="342" />
<glyph unicode="&#x205f;" horiz-adv-x="341" />
<glyph unicode="&#x20ac;" />
<glyph unicode="&#x2122;" horiz-adv-x="2048" />
<glyph unicode="&#x2202;" horiz-adv-x="1012" />
<glyph unicode="&#x2206;" horiz-adv-x="1253" />
<glyph unicode="&#x220f;" horiz-adv-x="1686" />
<glyph unicode="&#x2211;" horiz-adv-x="1460" />
<glyph unicode="&#x221a;" horiz-adv-x="1124" />
<glyph unicode="&#x221e;" horiz-adv-x="1460" />
<glyph unicode="&#x222b;" horiz-adv-x="561" />
<glyph unicode="&#x2248;" horiz-adv-x="1124" />
<glyph unicode="&#x2260;" horiz-adv-x="1124" />
<glyph unicode="&#x2264;" horiz-adv-x="1124" />
<glyph unicode="&#x2265;" horiz-adv-x="1124" />
<glyph unicode="&#x25ca;" horiz-adv-x="1012" />
<glyph unicode="&#x25fc;" horiz-adv-x="1095" d="M0 0v1095h1095v-1095h-1095z" />
</font>
</defs>
</svg>
